<svg width="12" height="14" viewBox="0 0 12 14" fill="none" xmlns="http://www.w3.org/2000/svg">
<path d="M10.684 3.95254C10.4266 3.35902 10.0555 2.82163 9.5916 2.3707C9.1262 1.9157 8.57754 1.55457 7.97559 1.30703C7.34941 1.04727 6.68496 0.916016 6 0.916016C5.31504 0.916016 4.65059 1.04727 4.02441 1.30566C3.41875 1.55586 2.87598 1.91406 2.4084 2.36934C1.94482 2.82052 1.57375 3.35784 1.31602 3.95117C1.04941 4.56641 0.914062 5.21992 0.914062 5.89258C0.914062 6.85781 1.14512 7.81895 1.59902 8.7459C1.96406 9.49102 2.47402 10.217 3.1166 10.9074C4.21445 12.0859 5.36562 12.8064 5.69238 12.9992C5.78513 13.054 5.89091 13.0828 5.99863 13.0826C6.10527 13.0826 6.21055 13.0553 6.30488 12.9992C6.63164 12.8064 7.78281 12.0859 8.88066 10.9074C9.52324 10.2184 10.0332 9.49102 10.3982 8.7459C10.8549 7.82031 11.0859 6.86055 11.0859 5.89395C11.0859 5.22129 10.9506 4.56777 10.684 3.95254ZM6 12.034C5.09902 11.4611 1.89844 9.19297 1.89844 5.89395C1.89844 4.82891 2.32363 3.82812 3.09609 3.07344C3.87129 2.31738 4.90215 1.90039 6 1.90039C7.09785 1.90039 8.12871 2.31738 8.90391 3.0748C9.67637 3.82812 10.1016 4.82891 10.1016 5.89395C10.1016 9.19297 6.90098 11.4611 6 12.034ZM6 3.5957C4.67109 3.5957 3.59375 4.67305 3.59375 6.00195C3.59375 7.33086 4.67109 8.4082 6 8.4082C7.32891 8.4082 8.40625 7.33086 8.40625 6.00195C8.40625 4.67305 7.32891 3.5957 6 3.5957ZM7.08281 7.08477C6.94079 7.22719 6.77201 7.34014 6.58618 7.4171C6.40035 7.49406 6.20114 7.53352 6 7.5332C5.59121 7.5332 5.20703 7.37324 4.91719 7.08477C4.77476 6.94274 4.66182 6.77396 4.58486 6.58813C4.5079 6.4023 4.46844 6.20309 4.46875 6.00195C4.46875 5.59316 4.62871 5.20898 4.91719 4.91914C5.20703 4.6293 5.59121 4.4707 6 4.4707C6.40879 4.4707 6.79297 4.6293 7.08281 4.91914C7.37266 5.20898 7.53125 5.59316 7.53125 6.00195C7.53125 6.41074 7.37266 6.79492 7.08281 7.08477Z" fill="white"/>
</svg>
