<svg width="16" height="16" viewBox="0 0 16 16" fill="none" xmlns="http://www.w3.org/2000/svg">
<path d="M13.5938 1.96875H10.3719C10.1 1.96875 9.85781 2.15469 9.79375 2.42656C9.59844 3.25156 8.85938 3.84375 8 3.84375C7.14062 3.84375 6.40156 3.25156 6.20625 2.42656C6.17578 2.29616 6.10205 2.17992 5.99707 2.09679C5.89208 2.01365 5.76204 1.96852 5.62813 1.96875H2.40625C2.22391 1.96875 2.04905 2.04118 1.92011 2.17011C1.79118 2.29905 1.71875 2.47391 1.71875 2.65625V6.59375C1.71875 6.77609 1.79118 6.95096 1.92011 7.07989C2.04905 7.20882 2.22391 7.28125 2.40625 7.28125H3.57812V13.3438C3.57812 13.5261 3.65056 13.701 3.77949 13.8299C3.90842 13.9588 4.08329 14.0313 4.26562 14.0313H11.7344C11.9167 14.0313 12.0916 13.9588 12.2205 13.8299C12.3494 13.701 12.4219 13.5261 12.4219 13.3438V7.28125H13.5938C13.7761 7.28125 13.951 7.20882 14.0799 7.07989C14.2088 6.95096 14.2812 6.77609 14.2812 6.59375V2.65625C14.2812 2.47391 14.2088 2.29905 14.0799 2.17011C13.951 2.04118 13.7761 1.96875 13.5938 1.96875ZM13.1562 6.15625H11.2969V12.9063H4.70312V6.15625H2.84375V3.09375H5.23906C5.67969 4.20625 6.7625 4.96875 8 4.96875C9.2375 4.96875 10.3203 4.20625 10.7609 3.09375H13.1562V6.15625Z" fill="#389E0D"/>
</svg>
