<svg width="14" height="12" viewBox="0 0 14 12" fill="none" xmlns="http://www.w3.org/2000/svg">
<path d="M13.5 0.515626H9.925C9.15781 0.515626 8.40781 0.735938 7.7625 1.15156L7 1.64063L6.2375 1.15156C5.59283 0.736018 4.84199 0.515215 4.075 0.515626H0.5C0.223437 0.515626 0 0.739063 0 1.01563V9.89063C0 10.1672 0.223437 10.3906 0.5 10.3906H4.075C4.84219 10.3906 5.59219 10.6109 6.2375 11.0266L6.93125 11.4734C6.95156 11.4859 6.975 11.4938 6.99844 11.4938C7.02187 11.4938 7.04531 11.4875 7.06563 11.4734L7.75937 11.0266C8.40625 10.6109 9.15781 10.3906 9.925 10.3906H13.5C13.7766 10.3906 14 10.1672 14 9.89063V1.01563C14 0.739063 13.7766 0.515626 13.5 0.515626ZM4.075 9.26563H1.125V1.64063H4.075C4.62812 1.64063 5.16562 1.79844 5.62969 2.09688L6.39219 2.58594L6.5 2.65625V9.875C5.75625 9.475 4.925 9.26563 4.075 9.26563ZM12.875 9.26563H9.925C9.075 9.26563 8.24375 9.475 7.5 9.875V2.65625L7.60781 2.58594L8.37031 2.09688C8.83438 1.79844 9.37187 1.64063 9.925 1.64063H12.875V9.26563ZM5.20156 3.64063H2.29844C2.2375 3.64063 2.1875 3.69375 2.1875 3.75781V4.46094C2.1875 4.525 2.2375 4.57813 2.29844 4.57813H5.2C5.26094 4.57813 5.31094 4.525 5.31094 4.46094V3.75781C5.3125 3.69375 5.2625 3.64063 5.20156 3.64063ZM8.6875 3.75781V4.46094C8.6875 4.525 8.7375 4.57813 8.79844 4.57813H11.7C11.7609 4.57813 11.8109 4.525 11.8109 4.46094V3.75781C11.8109 3.69375 11.7609 3.64063 11.7 3.64063H8.79844C8.7375 3.64063 8.6875 3.69375 8.6875 3.75781ZM5.20156 5.82813H2.29844C2.2375 5.82813 2.1875 5.88125 2.1875 5.94531V6.64844C2.1875 6.7125 2.2375 6.76563 2.29844 6.76563H5.2C5.26094 6.76563 5.31094 6.7125 5.31094 6.64844V5.94531C5.3125 5.88125 5.2625 5.82813 5.20156 5.82813ZM11.7016 5.82813H8.79844C8.7375 5.82813 8.6875 5.88125 8.6875 5.94531V6.64844C8.6875 6.7125 8.7375 6.76563 8.79844 6.76563H11.7C11.7609 6.76563 11.8109 6.7125 11.8109 6.64844V5.94531C11.8125 5.88125 11.7625 5.82813 11.7016 5.82813Z" fill="#8C8C8C"/>
</svg>
