<svg width="13" height="13" viewBox="0 0 13 13" fill="none" xmlns="http://www.w3.org/2000/svg">
<path d="M11.5202 2.82335C11.5155 2.81867 10.5655 3.75773 8.67485 5.64523L7.34829 4.31867L10.1749 1.4921C8.68735 0.596791 6.77642 0.826478 5.53735 2.06554C5.06372 2.53891 4.72287 3.1285 4.549 3.77516C4.37513 4.42183 4.37435 5.10285 4.54673 5.74992L4.57485 5.8546L0.145166 10.2827C0.048291 10.3796 0.048291 10.539 0.145166 10.6359L2.35454 12.8452C2.45142 12.9421 2.61079 12.9421 2.70767 12.8452L7.13423 8.41867L7.23892 8.44679C8.54673 8.79523 9.95142 8.43273 10.9264 7.45773C12.167 6.21867 12.3967 4.30773 11.5202 2.82335Z" fill="#8C8C8C"/>
</svg>
