<svg width="12" height="12" viewBox="0 0 12 12" fill="none" xmlns="http://www.w3.org/2000/svg">
<path d="M11.6191 2.87735C11.4359 2.45303 11.1716 2.06851 10.8412 1.74532C10.5105 1.42117 10.1207 1.16357 9.69277 0.986533C9.24909 0.802227 8.77321 0.707888 8.29277 0.708994C7.61875 0.708994 6.96113 0.893564 6.38965 1.2422C6.25293 1.3256 6.12305 1.4172 6 1.517C5.87695 1.4172 5.74707 1.3256 5.61035 1.2422C5.03887 0.893564 4.38125 0.708994 3.70723 0.708994C3.22187 0.708994 2.75156 0.801963 2.30723 0.986533C1.87793 1.16427 1.49102 1.41993 1.15879 1.74532C0.827925 2.06815 0.563622 2.45276 0.380859 2.87735C0.19082 3.31895 0.09375 3.7879 0.09375 4.27052C0.09375 4.72579 0.186719 5.2002 0.371289 5.68282C0.525781 6.08614 0.747266 6.5045 1.03027 6.92696C1.47871 7.59552 2.09531 8.29278 2.86094 8.99962C4.12969 10.1713 5.38613 10.9807 5.43945 11.0135L5.76348 11.2213C5.90703 11.3129 6.0916 11.3129 6.23516 11.2213L6.55918 11.0135C6.6125 10.9793 7.86758 10.1713 9.1377 8.99962C9.90332 8.29278 10.5199 7.59552 10.9684 6.92696C11.2514 6.5045 11.4742 6.08614 11.6273 5.68282C11.8119 5.2002 11.9049 4.72579 11.9049 4.27052C11.9062 3.7879 11.8092 3.31895 11.6191 2.87735ZM6 10.1399C6 10.1399 1.13281 7.0213 1.13281 4.27052C1.13281 2.87735 2.28535 1.74806 3.70723 1.74806C4.70664 1.74806 5.57344 2.30587 6 3.12071C6.42656 2.30587 7.29336 1.74806 8.29277 1.74806C9.71465 1.74806 10.8672 2.87735 10.8672 4.27052C10.8672 7.0213 6 10.1399 6 10.1399Z" fill="#595959"/>
</svg>
