<svg width="14" height="14" viewBox="0 0 14 14" fill="none" xmlns="http://www.w3.org/2000/svg">
<path d="M6.23438 3.1582C6.23438 3.36126 6.31504 3.556 6.45862 3.69958C6.6022 3.84316 6.79694 3.92383 7 3.92383C7.20306 3.92383 7.3978 3.84316 7.54138 3.69958C7.68496 3.556 7.76562 3.36126 7.76562 3.1582C7.76562 2.95515 7.68496 2.76041 7.54138 2.61682C7.3978 2.47324 7.20306 2.39258 7 2.39258C6.79694 2.39258 6.6022 2.47324 6.45862 2.61682C6.31504 2.76041 6.23438 2.95515 6.23438 3.1582ZM6.23438 6.98633C6.23438 7.18938 6.31504 7.38412 6.45862 7.52771C6.6022 7.67129 6.79694 7.75195 7 7.75195C7.20306 7.75195 7.3978 7.67129 7.54138 7.52771C7.68496 7.38412 7.76562 7.18938 7.76562 6.98633C7.76562 6.78327 7.68496 6.58853 7.54138 6.44495C7.3978 6.30137 7.20306 6.2207 7 6.2207C6.79694 6.2207 6.6022 6.30137 6.45862 6.44495C6.31504 6.58853 6.23438 6.78327 6.23438 6.98633ZM6.23438 10.8145C6.23438 11.0175 6.31504 11.2122 6.45862 11.3558C6.6022 11.4994 6.79694 11.5801 7 11.5801C7.20306 11.5801 7.3978 11.4994 7.54138 11.3558C7.68496 11.2122 7.76562 11.0175 7.76562 10.8145C7.76562 10.6114 7.68496 10.4167 7.54138 10.2731C7.3978 10.1295 7.20306 10.0488 7 10.0488C6.79694 10.0488 6.6022 10.1295 6.45862 10.2731C6.31504 10.4167 6.23438 10.6114 6.23438 10.8145Z" fill="#595959"/>
</svg>
