<svg width="395" height="396" viewBox="0 0 395 396" fill="none" xmlns="http://www.w3.org/2000/svg">
<g clip-path="url(#clip0)">
<path d="M224.218 264.516C224.218 264.516 218.487 256.846 207.485 261.17C196.483 265.495 193.245 277.99 199.909 292.709C207.334 309.107 217.354 308.375 221.863 307.434C226.372 306.493 234.369 298.365 234.369 298.365L224.218 264.516Z" fill="#8C8C8C"/>
<g style="mix-blend-mode:multiply">
<path d="M219.062 262.367C219.062 262.367 217.518 260.016 208.026 263.907C198.534 267.798 197.362 280.458 203.286 293.138C209.886 307.256 218.55 306.515 222.451 305.665C226.352 304.815 233.186 297.678 233.186 297.678L219.062 262.367Z" fill="#262626"/>
</g>
<path d="M243.208 149.064C243.208 149.064 230.881 131.508 212.1 145.655C212.1 145.655 199.94 136.22 189.082 143.316C178.224 150.412 177.998 160.946 177.998 160.946C177.998 160.946 169.354 144.033 153.894 149.2C140.897 153.587 141.864 166.366 142.075 169.845C142.075 169.845 121.619 159.292 117.037 182.97L88.1242 158.493C88.1242 158.493 89.0676 128.408 88.9855 127.038C88.9035 125.668 110.97 105.099 110.97 105.099L173.76 90.6283L223.565 90.2875L237.016 99.5162L243.208 149.064Z" fill="#389E0D"/>
<path d="M297.842 346.664L301.004 347.987C301.004 347.987 312.442 348.018 311.561 350.889C310.68 353.76 297.949 354.766 294.598 349.719C291.247 344.671 297.842 346.664 297.842 346.664Z" fill="#595959"/>
<path d="M237.589 289.399C237.589 289.399 247.348 290.32 256.19 292.042C265.032 293.764 275.202 294.607 279.129 299.63C283.057 304.653 301.415 347.88 301.415 347.88L295.392 350.944C295.392 350.944 274.598 338.802 269.263 318.605C269.263 318.605 268.091 313.671 261.221 315.705C250.656 318.839 240.349 314.261 240.349 314.261L231.618 310.372L233.448 300.208L237.589 289.399Z" fill="#FAFAFA"/>
<g style="mix-blend-mode:multiply" opacity="0.24">
<path d="M237.589 289.399C237.589 289.399 247.348 290.32 256.19 292.042C265.032 293.764 275.202 294.607 279.129 299.63C283.057 304.653 301.415 347.88 301.415 347.88L295.392 350.944C295.392 350.944 274.598 338.802 269.263 318.605C269.263 318.605 268.091 313.671 261.221 315.705C250.656 318.839 240.349 314.261 240.349 314.261L231.618 310.372L233.448 300.208L237.589 289.399Z" fill="#F5F5F5"/>
</g>
<path d="M201.112 245.387C201.112 245.387 203.421 247.726 204.673 246.754C205.926 245.782 206.381 243.448 208.245 244.879C210.109 246.31 213.148 236.898 210.897 235.882C208.647 234.866 207.021 235.948 206.58 236.886C206.138 237.823 204.254 235.159 202.15 235.698C200.047 236.237 200.853 237.573 199.551 238.519C198.249 239.466 195.467 237.629 193.952 239.819C192.436 242.009 194.863 243.073 193.639 245.078C192.414 247.084 190.106 246.599 190.736 249.327C191.367 252.055 192.997 251.844 192.925 253.714C192.853 255.584 190.956 257.379 192.871 258.623C195.31 260.213 193.502 261.322 194.705 262.653C195.004 262.947 195.366 263.171 195.763 263.307C196.16 263.443 196.582 263.488 196.999 263.439C197.416 263.39 197.817 263.248 198.173 263.024C198.528 262.8 198.829 262.498 199.054 262.142C199.759 261.165 200.494 262.275 201.166 263.992C202.542 267.534 205.834 265.954 206.658 264.407C207.482 262.86 204.671 255.748 204.671 255.748L201.112 245.387Z" fill="#473830"/>
<path d="M198.996 256.138C195.622 250.215 196.891 243.119 201.831 240.288C206.771 237.457 213.511 239.963 216.885 245.886C220.259 251.809 218.99 258.906 214.05 261.737C209.11 264.568 202.37 262.061 198.996 256.138Z" fill="#FFB196"/>
<path d="M208.579 258.591L202.17 257.857C202.17 257.857 206.413 266.423 205.082 268.548C203.751 270.673 212.589 269.167 212.589 269.167L217.237 265.267C217.237 265.267 213.61 258.854 213.209 256.955C212.809 255.057 208.579 258.591 208.579 258.591Z" fill="#FFB196"/>
<g style="mix-blend-mode:multiply" opacity="0.22">
<path d="M199.917 243.441C201.416 253.592 204.006 259.994 215.989 260.212C215.583 260.639 215.134 261.023 214.651 261.359C215.701 263.393 216.768 265.288 216.768 265.288L212.12 269.188C212.12 269.188 203.317 270.705 204.613 268.569C205.458 267.222 204.051 263.274 202.919 260.576C201.311 259.388 199.971 257.873 198.986 256.131C196.771 252.208 198.352 246.813 199.917 243.441Z" fill="#FFB196"/>
</g>
<g style="mix-blend-mode:multiply" opacity="0.24">
<g style="mix-blend-mode:multiply" opacity="0.24">
<path d="M244.68 303.697L230.189 294.351C230.189 294.351 240.08 294.571 247.54 301.609C250.739 304.587 265.267 312.555 270.102 308.465C270.216 308.349 270.321 308.225 270.416 308.094C270.416 308.094 269.29 314.807 271.819 319.982C272.937 322.28 278.732 335.236 284.955 342.933C278.933 337.36 272.035 329.047 269.263 318.605C269.263 318.605 268.091 313.671 261.221 315.705C257.393 316.78 253.388 317.067 249.448 316.55L244.68 303.697Z" fill="#364F90"/>
</g>
<g style="mix-blend-mode:multiply" opacity="0.24">
<path d="M291.506 348.331C293.517 348.988 293.922 349.401 293.378 349.648C292.843 349.28 292.207 348.84 291.506 348.331Z" fill="#364F90"/>
</g>
</g>
<path d="M257.197 371.95L258.865 374.862C258.865 374.862 266.783 381.915 265.391 383.962C263.999 386.009 257.685 383.451 254.088 379.628C250.492 375.805 251.856 369.894 251.856 369.894L257.197 371.95Z" fill="#595959"/>
<path d="M181.404 243.831C181.404 243.831 180.423 240.612 183.102 235.691C184.207 233.666 181.043 237.008 181.613 235.204C182.184 233.401 183.901 230.33 180.603 230.044C176.864 229.69 175.945 237.302 177.733 242.563C179.323 247.247 181.404 243.831 181.404 243.831Z" fill="#FFB196"/>
<path d="M214.577 226.516C214.577 226.516 209.996 225.791 208.514 224.901C206.419 223.646 209.527 224.073 207.685 223.664C205.843 223.255 204.648 222.313 205.508 220.45C207.076 217.04 212.225 220.859 215.95 224.086C219.674 227.313 214.577 226.516 214.577 226.516Z" fill="#FFB196"/>
<path d="M227.877 297.411L221.125 308.661C221.125 308.661 228.803 318.717 245.201 326.533C245.774 326.708 246.268 327.079 246.598 327.58C246.929 328.081 247.074 328.681 247.011 329.279C246.993 331.543 243.26 336.39 244.134 344.472C245.19 354.208 251.701 374.848 251.701 374.848L258.871 374.903C258.871 374.903 263.791 335.693 263.727 328.021C263.684 319.312 261.235 315.748 251.739 305.745C246.669 300.488 240.871 295.989 234.522 292.386L227.877 297.411Z" fill="#F5F5F5"/>
<g style="mix-blend-mode:multiply" opacity="0.24">
<path d="M245.171 343.217C245.249 347.048 245.553 350.87 246.082 354.664C245.233 351.294 244.581 347.878 244.128 344.432C243.242 336.355 246.987 331.503 247.005 329.238C247.059 328.648 246.909 328.058 246.581 327.565C246.253 327.073 245.766 326.708 245.201 326.533C228.803 318.717 221.125 308.661 221.125 308.661L225.056 302.121C228.156 307.376 235.117 316.646 248.376 324.605C248.942 324.859 249.405 325.299 249.69 325.852C249.975 326.405 250.064 327.038 249.943 327.649C249.662 330.011 245.186 334.653 245.171 343.217Z" fill="#364F90"/>
</g>
<path d="M223.812 275.658L220.07 263.527L217.712 263.519C214.294 266.094 210.034 267.282 205.784 266.845C205.784 266.845 202.327 267.898 200.888 268.143C199.45 268.387 193.858 266.066 190.522 264.483C188.602 263.575 189.539 260.944 181.856 242.066L176.647 243.261C176.647 243.261 175.551 260.196 181.481 271.738C181.481 271.738 187.14 282.399 204.133 284.565" fill="#D9D9D9"/>
<path d="M214.581 222.585C218.546 223.544 233.919 230.783 238.618 243.758C240.815 249.829 238.467 265.408 232.727 272.178C232.727 272.178 250.477 289.15 249.08 290.181C247.683 291.212 240.271 307.956 220.32 308.794C220.32 308.794 203.845 289.601 202.128 281.591C201.659 279.399 203.62 272.756 203.62 272.756L210.699 267.873C210.699 267.873 216.265 264.94 217.761 263.487C221.593 259.755 229.297 245.889 227.868 244.571C224.275 241.387 218.219 229.523 213.358 227.267L214.581 222.585Z" fill="#D9D9D9"/>
<path d="M199.376 246.51C199.797 247.163 200.423 247.657 201.155 247.914C201.888 248.171 202.685 248.176 203.422 247.929C205.814 247.156 207.279 243.558 208.757 245.404C210.541 247.639 213.413 246.549 213.819 244.982C214.226 243.415 214.646 244.045 215.948 243.746C219.018 242.992 218.165 237.322 214.649 237.524C211.347 237.749 213.148 236.898 210.892 235.871C208.636 234.843 207.016 235.937 206.574 236.874C206.133 237.812 204.248 235.147 202.144 235.687C200.041 236.226 200.847 237.562 199.545 238.508C198.243 239.454 195.462 237.617 193.946 239.807C192.43 241.997 194.857 243.061 193.633 245.067C192.408 247.072 190.1 246.588 190.731 249.315C191.361 252.043 199.376 246.51 199.376 246.51Z" fill="#473830"/>
<path d="M200.231 244.22C200.231 244.22 203.077 249.073 200.214 251.286C197.351 253.499 200.116 254.886 200.697 256.439C201.278 257.991 201.327 259.698 199.545 260.11C197.762 260.522 195.161 259.401 195.161 259.401L193.959 254.235L192.68 248.658L194.429 245.549L196.214 244.452L200.231 244.22Z" fill="#473830"/>
<g style="mix-blend-mode:multiply" opacity="0.46">
<path d="M181.571 271.787C180.401 269.466 179.442 267.044 178.705 264.551C185.102 279.965 200.626 277.902 200.626 277.902C202.099 281.62 202.23 282.223 203.182 284.467C187.01 281.999 181.571 271.787 181.571 271.787Z" fill="#D9D9D9"/>
</g>
<g style="mix-blend-mode:multiply" opacity="0.46">
<path d="M232.744 272.154L228.922 268.402C241.681 253.252 238.618 243.758 238.618 243.758C240.806 249.826 238.467 265.379 232.744 272.154Z" fill="#D9D9D9"/>
</g>
<path d="M236.215 275.569L235.973 275.336L236.215 275.569Z" fill="#FFBF3E"/>
<g style="mix-blend-mode:multiply" opacity="0.42">
<path d="M193.607 245.058C193.748 244.833 193.852 244.586 193.913 244.327C194.426 245.558 192.803 247.723 194.171 248.547C195.54 249.371 196.459 249.981 195.941 251.976C195.424 253.97 197.293 254.089 199.025 253.95C199.025 253.95 200.875 256.043 201.015 257.499C201.156 258.956 200.515 258.379 201.333 259.12C201.741 259.495 202.139 259.838 202.442 260.091C202.779 260.372 203.052 260.722 203.244 261.117C203.812 262.326 205.03 264.966 204.834 265.801C203.568 266.285 202.011 266.037 201.166 263.876C200.502 262.162 199.767 261.052 199.053 262.026C198.829 262.382 198.528 262.683 198.172 262.908C197.817 263.132 197.416 263.274 196.999 263.323C196.582 263.372 196.159 263.327 195.762 263.191C195.365 263.054 195.004 262.831 194.704 262.536C193.51 261.18 195.3 260.094 192.871 258.507C190.955 257.263 192.85 255.476 192.925 253.598C192.999 251.719 191.358 251.936 190.736 249.211C190.114 246.486 192.4 247.069 193.607 245.058Z" fill="#473830"/>
</g>
<path d="M200.801 250.463C200.801 250.463 199.428 248.768 197.997 250.049C196.567 251.33 198.01 256.198 201.061 254.384" fill="#FFB196"/>
<g style="mix-blend-mode:multiply" opacity="0.22">
<path d="M200.801 250.463C200.801 250.463 199.428 248.768 197.997 250.049C196.567 251.33 198.01 256.198 201.061 254.384" fill="#FFB196"/>
</g>
<g style="mix-blend-mode:multiply" opacity="0.46">
<g style="mix-blend-mode:multiply" opacity="0.46">
<path d="M203.515 282.537C212.486 298.155 234.581 299.188 246.695 286.454C248.4 288.432 249.426 289.888 249.068 290.129C247.663 291.157 240.259 307.904 220.308 308.742C220.308 308.742 203.833 289.549 202.116 281.538C201.582 279.828 201.239 278.063 201.091 276.276C201.583 278.473 202.4 280.583 203.515 282.537Z" fill="#D9D9D9"/>
</g>
</g>
<path d="M243.208 149.064L207.436 219.534" stroke="#BFBFBF" stroke-width="0.5" stroke-miterlimit="10"/>
<path d="M212.103 145.646L207.436 219.534" stroke="#BFBFBF" stroke-width="0.5" stroke-miterlimit="10"/>
<path d="M193.156 135.219L207.436 219.534" stroke="#BFBFBF" stroke-width="0.5" stroke-miterlimit="10"/>
<path d="M175.077 154.233L207.436 219.534" stroke="#BFBFBF" stroke-width="0.5" stroke-miterlimit="10"/>
<path d="M220.096 263.536L207.634 219.164" stroke="#BFBFBF" stroke-miterlimit="10"/>
<path d="M200.906 268.177L176.806 223.797" stroke="#BFBFBF" stroke-miterlimit="10"/>
<path d="M167.603 140.814L176.979 224.299" stroke="#BFBFBF" stroke-width="0.5" stroke-miterlimit="10"/>
<path d="M141.485 168.966L177.084 223.83" stroke="#BFBFBF" stroke-width="0.5" stroke-miterlimit="10"/>
<path d="M117.046 183.031L176.806 223.797" stroke="#BFBFBF" stroke-width="0.5" stroke-miterlimit="10"/>
<path d="M167.603 140.814L176.979 224.299" stroke="#BFBFBF" stroke-width="0.5" stroke-miterlimit="10"/>
<path d="M126.147 155.874L176.951 223.884" stroke="#BFBFBF" stroke-width="0.5" stroke-miterlimit="10"/>
<path d="M243.208 149.064C243.208 149.064 246.172 131.571 226.053 124.055C211.851 118.744 197.769 123.057 193.148 135.216C190.837 132.322 187.558 130.364 183.916 129.705C176.707 128.178 168.8 131.525 167.608 140.796C167.608 140.796 156.419 126.655 139.651 133.113C122.883 139.571 126.952 156.273 126.952 156.273C126.952 156.273 116.572 155.777 112.078 166.867C107.585 177.957 117.051 183.042 117.051 183.042C117.051 183.042 78.2329 171.267 69.8143 135.599C56.904 80.9271 86.4983 40.5791 138.933 29.9878C205.783 16.4781 272.98 60.1691 243.208 149.064Z" fill="#52C41A"/>
<path d="M204.992 266.731L202.247 267.64C205.761 275.169 207.475 283.417 207.254 291.73L209.927 295.609C209.927 295.609 213.027 279.232 204.992 266.731Z" fill="#8C8C8C"/>
<path d="M216.86 264.033L219.062 262.367C219.062 262.367 225.896 271.615 234.756 274.136L238.602 277.934C238.602 277.934 224.707 276.666 216.86 264.033Z" fill="#8C8C8C"/>
<path d="M238.602 277.934C238.602 277.934 224.03 292.762 209.935 295.611L212.438 299.009C212.438 299.009 232.011 294.347 241.35 280.726L238.602 277.934Z" fill="#8C8C8C"/>
<g style="mix-blend-mode:multiply">
<path d="M94.3664 59.8656C94.3664 59.8656 90.0707 102.767 122.95 149.65C122.95 149.65 95.2018 102.841 94.3664 59.8656Z" fill="#389E0D"/>
</g>
<g style="mix-blend-mode:multiply">
<path d="M184.204 44.25C184.204 44.25 199.106 79.9805 193.896 129.539C193.916 129.506 204.807 82.1731 184.204 44.25Z" fill="#389E0D"/>
</g>
<g style="mix-blend-mode:multiply">
<path d="M153.503 51.3791C153.503 51.3791 163.425 90.437 164.284 122.996C164.279 123.013 158.748 96.1342 153.503 51.3791Z" fill="#389E0D"/>
</g>
<g style="mix-blend-mode:multiply" opacity="0.39">
<g style="mix-blend-mode:multiply" opacity="0.39">
<path d="M241.715 138.19C242.398 138.756 243.012 139.401 243.544 140.112C244.445 137.712 245.798 135.508 247.527 133.618C246.359 138.848 244.918 144.014 243.208 149.093C243.631 145.389 243.118 141.64 241.715 138.19Z" fill="#FF5836"/>
</g>
<g style="mix-blend-mode:multiply" opacity="0.39">
<path d="M138.933 29.9878C159.507 25.8276 180.086 27.0787 197.92 33.4223C195.067 33.7776 192.201 34.2511 189.323 34.8426C136.888 45.434 107.294 85.782 120.204 140.454C121.52 146.025 123.674 151.361 126.592 156.281C124.753 156.307 116.088 156.961 112.081 166.858C107.587 177.948 117.054 183.034 117.054 183.034C117.054 183.034 78.2358 171.258 69.8172 135.59C56.9068 80.9184 86.4982 40.5791 138.933 29.9878Z" fill="#73D13D"/>
</g>
</g>
</g>
<defs>
<clipPath id="clip0">
<rect width="311.528" height="313.797" transform="matrix(-0.950476 -0.310798 -0.310798 0.950476 394.376 97.6269)" fill="white"/>
</clipPath>
</defs>
</svg>
