<svg width="18" height="18" viewBox="0 0 18 18" fill="none" xmlns="http://www.w3.org/2000/svg">
<path d="M15.0912 13.4227C14.7596 12.6372 14.2784 11.9238 13.6744 11.3221C13.0723 10.7186 12.3589 10.2375 11.5738 9.90527C11.5668 9.90176 11.5598 9.9 11.5528 9.89648C12.6479 9.10547 13.3598 7.81699 13.3598 6.36328C13.3598 3.95508 11.4086 2.00391 9.00041 2.00391C6.59221 2.00391 4.64104 3.95508 4.64104 6.36328C4.64104 7.81699 5.35295 9.10547 6.44807 9.89824C6.44104 9.90176 6.434 9.90352 6.42697 9.90703C5.63947 10.2393 4.93283 10.7156 4.32639 11.3238C3.72295 11.926 3.24182 12.6393 2.90959 13.4244C2.5832 14.193 2.40718 15.0171 2.39104 15.852C2.39057 15.8707 2.39386 15.8894 2.40071 15.9068C2.40757 15.9243 2.41785 15.9402 2.43096 15.9537C2.44406 15.9671 2.45973 15.9778 2.47702 15.9851C2.49432 15.9923 2.51289 15.9961 2.53166 15.9961H3.58635C3.66369 15.9961 3.72522 15.9346 3.72697 15.859C3.76213 14.502 4.30705 13.2311 5.27033 12.2678C6.26701 11.2711 7.59065 10.7227 9.00041 10.7227C10.4102 10.7227 11.7338 11.2711 12.7305 12.2678C13.6938 13.2311 14.2387 14.502 14.2738 15.859C14.2756 15.9363 14.3371 15.9961 14.4145 15.9961H15.4692C15.4879 15.9961 15.5065 15.9923 15.5238 15.9851C15.5411 15.9778 15.5568 15.9671 15.5699 15.9537C15.583 15.9402 15.5933 15.9243 15.6001 15.9068C15.607 15.8894 15.6103 15.8707 15.6098 15.852C15.5922 15.0117 15.4182 14.1943 15.0912 13.4227ZM9.00041 9.38672C8.19357 9.38672 7.4342 9.07207 6.86291 8.50078C6.29162 7.92949 5.97697 7.17012 5.97697 6.36328C5.97697 5.55645 6.29162 4.79707 6.86291 4.22578C7.4342 3.65449 8.19357 3.33984 9.00041 3.33984C9.80725 3.33984 10.5666 3.65449 11.1379 4.22578C11.7092 4.79707 12.0238 5.55645 12.0238 6.36328C12.0238 7.17012 11.7092 7.92949 11.1379 8.50078C10.5666 9.07207 9.80725 9.38672 9.00041 9.38672Z" fill="#BFBFBF"/>
</svg>
