<svg width="6" height="4" viewBox="0 0 6 4" fill="none" xmlns="http://www.w3.org/2000/svg">
<path d="M5.95675 3.90078L3.20206 0.103125C3.10206 -0.034375 2.89737 -0.034375 2.79815 0.103125L0.0426854 3.90078C0.0359045 3.91012 0.0318423 3.92116 0.0309492 3.93266C0.030056 3.94417 0.0323668 3.9557 0.0376254 3.96598C0.0428839 3.97625 0.0508849 3.98487 0.0607413 3.99087C0.0705978 3.99688 0.0819248 4.00004 0.0934667 4H0.679404C0.719248 4 0.756748 3.98047 0.780185 3.94844L2.99972 0.889062L5.21925 3.94844C5.24269 3.98047 5.28019 4 5.32003 4H5.90597C5.95675 4 5.98644 3.94219 5.95675 3.90078Z" fill="#8C8C8C"/>
</svg>
